# xmcd
#
# Track frame offsets:
#	150
#	14946
#	27108
#	46131
#	59156
#	70631
#	82232
#	88948
#	100327
#	115633
#	129968
#	147198
#	151054
#	154792
#	162313
#	183610
#	195942
#	211413
#	226575
#	236212
#
# Disc length: 3509 seconds
#
# Revision: 0
# Processed by: cddbd v1.4PL0 Copyright (c) Steve Scherf et al.
# Submitted via: dBpowerAMP V4.0
#
DISCID=0e0db314
DTITLE=Ted Egan - Very Best Of
DYEAR=1900
DGENRE=
TTITLE0=Very Best Of - 01 - The Goanna Drover
TTITLE1=Very Best Of - 02 - The Man From Humpty Do
TTITLE2=Matt Savage-Drover Boss
TTITLE3=Marsupial Joe
TTITLE4=Roger Was No Death Adder
TTITLE5=Have You Been To The Rock
TTITLE6=Khala Khala
TTITLE7=The Bangtail Muster
TTITLE8=Jacky Howe-The Warwick Gun
TTITLE9=The Characters Of The Outback
TTITLE10=She's On Again In Darwin
TTITLE11=The Black Cockatoo
TTITLE12=Brolga Song
TTITLE13=Old T.I
TTITLE14=Sayonara Nakamura
TTITLE15=The Birdsville Races
TTITLE16=Arnhem Land Lullaby
TTITLE17=Rind On Little Cowboy
TTITLE18=Daly River Oh
TTITLE19=Drinkers Of The Territory
EXTD=My Australia
EXTT0=
EXTT1=
EXTT2=
EXTT3=
EXTT4=
EXTT5=
EXTT6=
EXTT7=
EXTT8=
EXTT9=
EXTT10=
EXTT11=
EXTT12=
EXTT13=
EXTT14=
EXTT15=
EXTT16=
EXTT17=
EXTT18=
EXTT19=
PLAYORDER=
